# Wavefront OBJ file automatically generated by Tiled2Unity

# Vertices (Count = 204)
v 0 -1 0
v -1 -1 0
v -1 0 0
v 0 0 0
v -2 -1 0
v -2 0 0
v -3 -1 0
v -3 0 0
v -4 -1 0
v -4 0 0
v -5 -1 0
v -5 0 0
v -6 -1 0
v -6 0 0
v -7 -1 0
v -7 0 0
v -8 -1 0
v -8 0 0
v -9 -1 0
v -9 0 0
v -10 -1 0
v -10 0 0
v -11 -1 0
v -11 0 0
v -12 -1 0
v -12 0 0
v -13 -1 0
v -13 0 0
v -14 -1 0
v -14 0 0
v -15 -1 0
v -15 0 0
v -16 -1 0
v -16 0 0
v 0 -2 0
v -1 -2 0
v -2 -2 0
v -3 -2 0
v -4 -2 0
v -5 -2 0
v -6 -2 0
v -7 -2 0
v -8 -2 0
v -9 -2 0
v -10 -2 0
v -11 -2 0
v -12 -2 0
v -13 -2 0
v -14 -2 0
v -15 -2 0
v -16 -2 0
v 0 -3 0
v -1 -3 0
v -2 -3 0
v -3 -3 0
v -4 -3 0
v -5 -3 0
v -6 -3 0
v -7 -3 0
v -8 -3 0
v -9 -3 0
v -10 -3 0
v -11 -3 0
v -12 -3 0
v -13 -3 0
v -14 -3 0
v -15 -3 0
v -16 -3 0
v 0 -4 0
v -1 -4 0
v -2 -4 0
v -3 -4 0
v -4 -4 0
v -5 -4 0
v -6 -4 0
v -7 -4 0
v -8 -4 0
v -9 -4 0
v -10 -4 0
v -11 -4 0
v -12 -4 0
v -13 -4 0
v -14 -4 0
v -15 -4 0
v -16 -4 0
v 0 -5 0
v -1 -5 0
v -2 -5 0
v -3 -5 0
v -4 -5 0
v -5 -5 0
v -6 -5 0
v -7 -5 0
v -8 -5 0
v -9 -5 0
v -10 -5 0
v -11 -5 0
v -12 -5 0
v -13 -5 0
v -14 -5 0
v -15 -5 0
v -16 -5 0
v 0 -6 0
v -1 -6 0
v -2 -6 0
v -3 -6 0
v -4 -6 0
v -5 -6 0
v -6 -6 0
v -7 -6 0
v -8 -6 0
v -9 -6 0
v -10 -6 0
v -11 -6 0
v -12 -6 0
v -13 -6 0
v -14 -6 0
v -15 -6 0
v -16 -6 0
v 0 -7 0
v -1 -7 0
v -2 -7 0
v -3 -7 0
v -4 -7 0
v -5 -7 0
v -6 -7 0
v -7 -7 0
v -8 -7 0
v -9 -7 0
v -10 -7 0
v -11 -7 0
v -12 -7 0
v -13 -7 0
v -14 -7 0
v -15 -7 0
v -16 -7 0
v 0 -8 0
v -1 -8 0
v -2 -8 0
v -3 -8 0
v -4 -8 0
v -5 -8 0
v -6 -8 0
v -7 -8 0
v -8 -8 0
v -9 -8 0
v -10 -8 0
v -11 -8 0
v -12 -8 0
v -13 -8 0
v -14 -8 0
v -15 -8 0
v -16 -8 0
v 0 -9 0
v -1 -9 0
v -2 -9 0
v -3 -9 0
v -4 -9 0
v -5 -9 0
v -6 -9 0
v -7 -9 0
v -8 -9 0
v -9 -9 0
v -10 -9 0
v -11 -9 0
v -12 -9 0
v -13 -9 0
v -14 -9 0
v -15 -9 0
v -16 -9 0
v 0 -10 0
v -1 -10 0
v -2 -10 0
v -3 -10 0
v -4 -10 0
v -5 -10 0
v -6 -10 0
v -7 -10 0
v -8 -10 0
v -9 -10 0
v -10 -10 0
v -11 -10 0
v -12 -10 0
v -13 -10 0
v -14 -10 0
v -15 -10 0
v -16 -10 0
v 0 -11 0
v -1 -11 0
v -2 -11 0
v -3 -11 0
v -4 -11 0
v -5 -11 0
v -6 -11 0
v -7 -11 0
v -8 -11 0
v -9 -11 0
v -10 -11 0
v -11 -11 0
v -12 -11 0
v -13 -11 0
v -14 -11 0
v -15 -11 0
v -16 -11 0

# Texture cooridinates (Count = 28)
vt 0.0001220703 0.9688721
vt 0.03112793 0.9688721
vt 0.03112793 0.9998779
vt 0.0001220703 0.9998779
vt 0.03137207 0.9688721
vt 0.06237793 0.9688721
vt 0.06237793 0.9998779
vt 0.03137207 0.9998779
vt 0.06262207 0.9688721
vt 0.09362793 0.9688721
vt 0.09362793 0.9998779
vt 0.06262207 0.9998779
vt 0.09387207 0.9688721
vt 0.1248779 0.9688721
vt 0.1248779 0.9998779
vt 0.09387207 0.9998779
vt 0.1563721 0.9688721
vt 0.1873779 0.9688721
vt 0.1873779 0.9998779
vt 0.1563721 0.9998779
vt 0.1251221 0.9688721
vt 0.1561279 0.9688721
vt 0.1561279 0.9998779
vt 0.1251221 0.9998779
vt 0.1876221 0.9688721
vt 0.2186279 0.9688721
vt 0.2186279 0.9998779
vt 0.1876221 0.9998779

# Normal
vn 0 0 -1

# Groups (Count = 4)

g mesh_0001
f 1/1/1 2/2/1 3/3/1 4/4/1
f 2/1/1 5/2/1 6/3/1 3/4/1
f 5/1/1 7/2/1 8/3/1 6/4/1
f 7/1/1 9/2/1 10/3/1 8/4/1
f 9/1/1 11/2/1 12/3/1 10/4/1
f 11/1/1 13/2/1 14/3/1 12/4/1
f 13/1/1 15/2/1 16/3/1 14/4/1
f 15/1/1 17/2/1 18/3/1 16/4/1
f 17/1/1 19/2/1 20/3/1 18/4/1
f 19/1/1 21/2/1 22/3/1 20/4/1
f 21/1/1 23/2/1 24/3/1 22/4/1
f 23/1/1 25/2/1 26/3/1 24/4/1
f 25/1/1 27/2/1 28/3/1 26/4/1
f 27/5/1 29/6/1 30/7/1 28/8/1
f 29/5/1 31/6/1 32/7/1 30/8/1
f 31/5/1 33/6/1 34/7/1 32/8/1
f 35/1/1 36/2/1 2/3/1 1/4/1
f 36/5/1 37/6/1 5/7/1 2/8/1
f 37/1/1 38/2/1 7/3/1 5/4/1
f 38/9/1 39/10/1 9/11/1 7/12/1
f 39/1/1 40/2/1 11/3/1 9/4/1
f 40/1/1 41/2/1 13/3/1 11/4/1
f 41/1/1 42/2/1 15/3/1 13/4/1
f 42/5/1 43/6/1 17/7/1 15/8/1
f 43/5/1 44/6/1 19/7/1 17/8/1
f 44/1/1 45/2/1 21/3/1 19/4/1
f 45/9/1 46/10/1 23/11/1 21/12/1
f 46/5/1 47/6/1 25/7/1 23/8/1
f 47/5/1 48/6/1 27/7/1 25/8/1
f 48/5/1 49/6/1 29/7/1 27/8/1
f 49/1/1 50/2/1 31/3/1 29/4/1
f 50/1/1 51/2/1 33/3/1 31/4/1
f 52/1/1 53/2/1 36/3/1 35/4/1
f 53/1/1 54/2/1 37/3/1 36/4/1
f 54/1/1 55/2/1 38/3/1 37/4/1
f 55/5/1 56/6/1 39/7/1 38/8/1
f 56/1/1 57/2/1 40/3/1 39/4/1
f 57/5/1 58/6/1 41/7/1 40/8/1
f 58/5/1 59/6/1 42/7/1 41/8/1
f 59/1/1 60/2/1 43/3/1 42/4/1
f 60/1/1 61/2/1 44/3/1 43/4/1
f 61/1/1 62/2/1 45/3/1 44/4/1
f 62/5/1 63/6/1 46/7/1 45/8/1
f 63/1/1 64/2/1 47/3/1 46/4/1
f 64/1/1 65/2/1 48/3/1 47/4/1
f 65/1/1 66/2/1 49/3/1 48/4/1
f 66/1/1 67/2/1 50/3/1 49/4/1
f 67/1/1 68/2/1 51/3/1 50/4/1
f 69/1/1 70/2/1 53/3/1 52/4/1
f 70/1/1 71/2/1 54/3/1 53/4/1
f 71/1/1 72/2/1 55/3/1 54/4/1
f 72/1/1 73/2/1 56/3/1 55/4/1
f 73/1/1 74/2/1 57/3/1 56/4/1
f 74/9/1 75/10/1 58/11/1 57/12/1
f 75/1/1 76/2/1 59/3/1 58/4/1
f 76/5/1 77/6/1 60/7/1 59/8/1
f 77/1/1 78/2/1 61/3/1 60/4/1
f 78/1/1 79/2/1 62/3/1 61/4/1
f 79/13/1 80/14/1 63/15/1 62/16/1
f 80/1/1 81/2/1 64/3/1 63/4/1
f 81/9/1 82/10/1 65/11/1 64/12/1
f 82/1/1 83/2/1 66/3/1 65/4/1
f 83/1/1 84/2/1 67/3/1 66/4/1
f 84/1/1 85/2/1 68/3/1 67/4/1
f 86/1/1 87/2/1 70/3/1 69/4/1
f 87/1/1 88/2/1 71/3/1 70/4/1
f 88/1/1 89/2/1 72/3/1 71/4/1
f 89/9/1 90/10/1 73/11/1 72/12/1
f 90/1/1 91/2/1 74/3/1 73/4/1
f 91/1/1 92/2/1 75/3/1 74/4/1
f 92/5/1 93/6/1 76/7/1 75/8/1
f 93/1/1 94/2/1 77/3/1 76/4/1
f 94/1/1 95/2/1 78/3/1 77/4/1
f 95/1/1 96/2/1 79/3/1 78/4/1
f 96/1/1 97/2/1 80/3/1 79/4/1
f 97/1/1 98/2/1 81/3/1 80/4/1
f 98/1/1 99/2/1 82/3/1 81/4/1
f 99/1/1 100/2/1 83/3/1 82/4/1
f 100/1/1 101/2/1 84/3/1 83/4/1
f 101/1/1 102/2/1 85/3/1 84/4/1
f 103/1/1 104/2/1 87/3/1 86/4/1
f 104/5/1 105/6/1 88/7/1 87/8/1
f 105/1/1 106/2/1 89/3/1 88/4/1
f 106/1/1 107/2/1 90/3/1 89/4/1
f 107/1/1 108/2/1 91/3/1 90/4/1
f 108/5/1 109/6/1 92/7/1 91/8/1
f 109/1/1 110/2/1 93/3/1 92/4/1
f 110/1/1 111/2/1 94/3/1 93/4/1
f 111/1/1 112/2/1 95/3/1 94/4/1
f 112/5/1 113/6/1 96/7/1 95/8/1
f 113/5/1 114/6/1 97/7/1 96/8/1
f 114/1/1 115/2/1 98/3/1 97/4/1
f 115/5/1 116/6/1 99/7/1 98/8/1
f 116/1/1 117/2/1 100/3/1 99/4/1
f 117/1/1 118/2/1 101/3/1 100/4/1
f 118/5/1 119/6/1 102/7/1 101/8/1
f 120/1/1 121/2/1 104/3/1 103/4/1
f 121/1/1 122/2/1 105/3/1 104/4/1
f 122/1/1 123/2/1 106/3/1 105/4/1
f 123/1/1 124/2/1 107/3/1 106/4/1
f 124/13/1 125/14/1 108/15/1 107/16/1
f 125/1/1 126/2/1 109/3/1 108/4/1
f 126/1/1 127/2/1 110/3/1 109/4/1
f 127/1/1 128/2/1 111/3/1 110/4/1
f 128/1/1 129/2/1 112/3/1 111/4/1
f 129/5/1 130/6/1 113/7/1 112/8/1
f 130/1/1 131/2/1 114/3/1 113/4/1
f 131/1/1 132/2/1 115/3/1 114/4/1
f 132/1/1 133/2/1 116/3/1 115/4/1
f 133/5/1 134/6/1 117/7/1 116/8/1
f 134/5/1 135/6/1 118/7/1 117/8/1
f 135/5/1 136/6/1 119/7/1 118/8/1
f 137/1/1 138/2/1 121/3/1 120/4/1
f 138/13/1 139/14/1 122/15/1 121/16/1
f 139/1/1 140/2/1 123/3/1 122/4/1
f 140/5/1 141/6/1 124/7/1 123/8/1
f 141/1/1 142/2/1 125/3/1 124/4/1
f 142/1/1 143/2/1 126/3/1 125/4/1
f 143/5/1 144/6/1 127/7/1 126/8/1
f 144/1/1 145/2/1 128/3/1 127/4/1
f 145/1/1 146/2/1 129/3/1 128/4/1
f 146/1/1 147/2/1 130/3/1 129/4/1
f 147/1/1 148/2/1 131/3/1 130/4/1
f 148/1/1 149/2/1 132/3/1 131/4/1
f 149/9/1 150/10/1 133/11/1 132/12/1
f 150/1/1 151/2/1 134/3/1 133/4/1
f 151/5/1 152/6/1 135/7/1 134/8/1
f 152/5/1 153/6/1 136/7/1 135/8/1
f 154/1/1 155/2/1 138/3/1 137/4/1
f 155/5/1 156/6/1 139/7/1 138/8/1
f 156/1/1 157/2/1 140/3/1 139/4/1
f 157/1/1 158/2/1 141/3/1 140/4/1
f 158/1/1 159/2/1 142/3/1 141/4/1
f 159/1/1 160/2/1 143/3/1 142/4/1
f 160/5/1 161/6/1 144/7/1 143/8/1
f 161/1/1 162/2/1 145/3/1 144/4/1
f 162/1/1 163/2/1 146/3/1 145/4/1
f 163/1/1 164/2/1 147/3/1 146/4/1
f 164/5/1 165/6/1 148/7/1 147/8/1
f 165/1/1 166/2/1 149/3/1 148/4/1
f 166/1/1 167/2/1 150/3/1 149/4/1
f 167/1/1 168/2/1 151/3/1 150/4/1
f 168/1/1 169/2/1 152/3/1 151/4/1
f 169/1/1 170/2/1 153/3/1 152/4/1
f 171/1/1 172/2/1 155/3/1 154/4/1
f 172/1/1 173/2/1 156/3/1 155/4/1
f 173/9/1 174/10/1 157/11/1 156/12/1
f 174/5/1 175/6/1 158/7/1 157/8/1
f 175/1/1 176/2/1 159/3/1 158/4/1
f 176/1/1 177/2/1 160/3/1 159/4/1
f 177/9/1 178/10/1 161/11/1 160/12/1
f 178/13/1 179/14/1 162/15/1 161/16/1
f 179/5/1 180/6/1 163/7/1 162/8/1
f 180/5/1 181/6/1 164/7/1 163/8/1
f 181/5/1 182/6/1 165/7/1 164/8/1
f 182/1/1 183/2/1 166/3/1 165/4/1
f 183/1/1 184/2/1 167/3/1 166/4/1
f 184/1/1 185/2/1 168/3/1 167/4/1
f 185/1/1 186/2/1 169/3/1 168/4/1
f 186/1/1 187/2/1 170/3/1 169/4/1
f 188/1/1 189/2/1 172/3/1 171/4/1
f 189/1/1 190/2/1 173/3/1 172/4/1
f 190/1/1 191/2/1 174/3/1 173/4/1
f 191/1/1 192/2/1 175/3/1 174/4/1
f 192/1/1 193/2/1 176/3/1 175/4/1
f 193/1/1 194/2/1 177/3/1 176/4/1
f 194/1/1 195/2/1 178/3/1 177/4/1
f 195/5/1 196/6/1 179/7/1 178/8/1
f 196/5/1 197/6/1 180/7/1 179/8/1
f 197/1/1 198/2/1 181/3/1 180/4/1
f 198/1/1 199/2/1 182/3/1 181/4/1
f 199/13/1 200/14/1 183/15/1 182/16/1
f 200/1/1 201/2/1 184/3/1 183/4/1
f 201/5/1 202/6/1 185/7/1 184/8/1
f 202/1/1 203/2/1 186/3/1 185/4/1
f 203/1/1 204/2/1 187/3/1 186/4/1

g mesh_0002
f 1/17/1 2/18/1 3/19/1 4/20/1
f 2/17/1 5/18/1 6/19/1 3/20/1
f 5/17/1 7/18/1 8/19/1 6/20/1
f 7/17/1 9/18/1 10/19/1 8/20/1
f 9/17/1 11/18/1 12/19/1 10/20/1
f 11/17/1 13/18/1 14/19/1 12/20/1
f 13/17/1 15/18/1 16/19/1 14/20/1
f 15/17/1 17/18/1 18/19/1 16/20/1
f 17/17/1 19/18/1 20/19/1 18/20/1
f 19/17/1 21/18/1 22/19/1 20/20/1
f 21/17/1 23/18/1 24/19/1 22/20/1
f 23/17/1 25/18/1 26/19/1 24/20/1
f 25/17/1 27/18/1 28/19/1 26/20/1
f 27/17/1 29/18/1 30/19/1 28/20/1
f 29/17/1 31/18/1 32/19/1 30/20/1
f 31/17/1 33/18/1 34/19/1 32/20/1
f 35/17/1 36/18/1 2/19/1 1/20/1
f 36/17/1 37/18/1 5/19/1 2/20/1
f 37/17/1 38/18/1 7/19/1 5/20/1
f 38/17/1 39/18/1 9/19/1 7/20/1
f 39/17/1 40/18/1 11/19/1 9/20/1
f 40/17/1 41/18/1 13/19/1 11/20/1
f 41/17/1 42/18/1 15/19/1 13/20/1
f 42/17/1 43/18/1 17/19/1 15/20/1
f 43/17/1 44/18/1 19/19/1 17/20/1
f 44/17/1 45/18/1 21/19/1 19/20/1
f 45/17/1 46/18/1 23/19/1 21/20/1
f 46/17/1 47/18/1 25/19/1 23/20/1
f 47/17/1 48/18/1 27/19/1 25/20/1
f 48/17/1 49/18/1 29/19/1 27/20/1
f 49/17/1 50/18/1 31/19/1 29/20/1
f 50/17/1 51/18/1 33/19/1 31/20/1
f 66/17/1 67/18/1 50/19/1 49/20/1
f 67/17/1 68/18/1 51/19/1 50/20/1
f 72/17/1 73/18/1 56/19/1 55/20/1
f 73/17/1 74/18/1 57/19/1 56/20/1
f 74/17/1 75/18/1 58/19/1 57/20/1
f 75/17/1 76/18/1 59/19/1 58/20/1
f 84/17/1 85/18/1 68/19/1 67/20/1
f 94/17/1 95/18/1 78/19/1 77/20/1
f 95/17/1 96/18/1 79/19/1 78/20/1
f 96/17/1 97/18/1 80/19/1 79/20/1
f 106/17/1 107/18/1 90/19/1 89/20/1
f 107/17/1 108/18/1 91/19/1 90/20/1
f 108/17/1 109/18/1 92/19/1 91/20/1
f 109/17/1 110/18/1 93/19/1 92/20/1
f 128/17/1 129/18/1 112/19/1 111/20/1
f 129/17/1 130/18/1 113/19/1 112/20/1
f 130/17/1 131/18/1 114/19/1 113/20/1
f 140/17/1 141/18/1 124/19/1 123/20/1
f 141/17/1 142/18/1 125/19/1 124/20/1
f 142/17/1 143/18/1 126/19/1 125/20/1
f 143/17/1 144/18/1 127/19/1 126/20/1
f 152/17/1 153/18/1 136/19/1 135/20/1
f 168/17/1 169/18/1 152/19/1 151/20/1
f 169/17/1 170/18/1 153/19/1 152/20/1
f 171/17/1 172/18/1 155/19/1 154/20/1
f 172/17/1 173/18/1 156/19/1 155/20/1
f 173/17/1 174/18/1 157/19/1 156/20/1
f 174/17/1 175/18/1 158/19/1 157/20/1
f 175/17/1 176/18/1 159/19/1 158/20/1
f 176/17/1 177/18/1 160/19/1 159/20/1
f 177/17/1 178/18/1 161/19/1 160/20/1
f 178/17/1 179/18/1 162/19/1 161/20/1
f 179/17/1 180/18/1 163/19/1 162/20/1
f 180/17/1 181/18/1 164/19/1 163/20/1
f 181/17/1 182/18/1 165/19/1 164/20/1
f 182/17/1 183/18/1 166/19/1 165/20/1
f 185/17/1 186/18/1 169/19/1 168/20/1
f 186/17/1 187/18/1 170/19/1 169/20/1
f 188/17/1 189/18/1 172/19/1 171/20/1
f 189/17/1 190/18/1 173/19/1 172/20/1
f 190/17/1 191/18/1 174/19/1 173/20/1
f 191/17/1 192/18/1 175/19/1 174/20/1
f 192/17/1 193/18/1 176/19/1 175/20/1
f 193/17/1 194/18/1 177/19/1 176/20/1
f 194/17/1 195/18/1 178/19/1 177/20/1
f 195/17/1 196/18/1 179/19/1 178/20/1
f 196/17/1 197/18/1 180/19/1 179/20/1
f 197/17/1 198/18/1 181/19/1 180/20/1
f 198/17/1 199/18/1 182/19/1 181/20/1
f 199/17/1 200/18/1 183/19/1 182/20/1
f 202/17/1 203/18/1 186/19/1 185/20/1
f 203/17/1 204/18/1 187/19/1 186/20/1

g mesh_0003
f 1/21/1 2/22/1 3/23/1 4/24/1
f 2/21/1 5/22/1 6/23/1 3/24/1
f 5/21/1 7/22/1 8/23/1 6/24/1
f 7/21/1 9/22/1 10/23/1 8/24/1
f 9/21/1 11/22/1 12/23/1 10/24/1
f 11/21/1 13/22/1 14/23/1 12/24/1
f 13/21/1 15/22/1 16/23/1 14/24/1
f 15/21/1 17/22/1 18/23/1 16/24/1
f 17/21/1 19/22/1 20/23/1 18/24/1
f 19/21/1 21/22/1 22/23/1 20/24/1
f 21/21/1 23/22/1 24/23/1 22/24/1
f 23/21/1 25/22/1 26/23/1 24/24/1
f 25/21/1 27/22/1 28/23/1 26/24/1
f 27/21/1 29/22/1 30/23/1 28/24/1
f 29/21/1 31/22/1 32/23/1 30/24/1
f 31/21/1 33/22/1 34/23/1 32/24/1
f 35/21/1 36/22/1 2/23/1 1/24/1
f 36/21/1 37/22/1 5/23/1 2/24/1
f 37/21/1 38/22/1 7/23/1 5/24/1
f 38/21/1 39/22/1 9/23/1 7/24/1
f 39/21/1 40/22/1 11/23/1 9/24/1
f 40/21/1 41/22/1 13/23/1 11/24/1
f 41/21/1 42/22/1 15/23/1 13/24/1
f 42/21/1 43/22/1 17/23/1 15/24/1
f 43/21/1 44/22/1 19/23/1 17/24/1
f 44/21/1 45/22/1 21/23/1 19/24/1
f 45/21/1 46/22/1 23/23/1 21/24/1
f 46/21/1 47/22/1 25/23/1 23/24/1
f 47/21/1 48/22/1 27/23/1 25/24/1
f 48/21/1 49/22/1 29/23/1 27/24/1
f 49/21/1 50/22/1 31/23/1 29/24/1
f 50/21/1 51/22/1 33/23/1 31/24/1
f 66/21/1 67/22/1 50/23/1 49/24/1
f 67/21/1 68/22/1 51/23/1 50/24/1
f 72/21/1 73/22/1 56/23/1 55/24/1
f 73/21/1 74/22/1 57/23/1 56/24/1
f 74/21/1 75/22/1 58/23/1 57/24/1
f 75/21/1 76/22/1 59/23/1 58/24/1
f 84/21/1 85/22/1 68/23/1 67/24/1
f 94/21/1 95/22/1 78/23/1 77/24/1
f 95/21/1 96/22/1 79/23/1 78/24/1
f 96/21/1 97/22/1 80/23/1 79/24/1
f 106/21/1 107/22/1 90/23/1 89/24/1
f 107/21/1 108/22/1 91/23/1 90/24/1
f 108/21/1 109/22/1 92/23/1 91/24/1
f 109/21/1 110/22/1 93/23/1 92/24/1
f 128/21/1 129/22/1 112/23/1 111/24/1
f 129/21/1 130/22/1 113/23/1 112/24/1
f 130/21/1 131/22/1 114/23/1 113/24/1
f 140/21/1 141/22/1 124/23/1 123/24/1
f 141/21/1 142/22/1 125/23/1 124/24/1
f 142/21/1 143/22/1 126/23/1 125/24/1
f 143/21/1 144/22/1 127/23/1 126/24/1
f 152/21/1 153/22/1 136/23/1 135/24/1
f 168/21/1 169/22/1 152/23/1 151/24/1
f 169/21/1 170/22/1 153/23/1 152/24/1
f 171/21/1 172/22/1 155/23/1 154/24/1
f 172/21/1 173/22/1 156/23/1 155/24/1
f 173/21/1 174/22/1 157/23/1 156/24/1
f 174/21/1 175/22/1 158/23/1 157/24/1
f 175/21/1 176/22/1 159/23/1 158/24/1
f 176/21/1 177/22/1 160/23/1 159/24/1
f 177/21/1 178/22/1 161/23/1 160/24/1
f 178/21/1 179/22/1 162/23/1 161/24/1
f 179/21/1 180/22/1 163/23/1 162/24/1
f 180/21/1 181/22/1 164/23/1 163/24/1
f 181/21/1 182/22/1 165/23/1 164/24/1
f 182/21/1 183/22/1 166/23/1 165/24/1
f 185/21/1 186/22/1 169/23/1 168/24/1
f 186/21/1 187/22/1 170/23/1 169/24/1
f 188/21/1 189/22/1 172/23/1 171/24/1
f 189/21/1 190/22/1 173/23/1 172/24/1
f 190/21/1 191/22/1 174/23/1 173/24/1
f 191/21/1 192/22/1 175/23/1 174/24/1
f 192/21/1 193/22/1 176/23/1 175/24/1
f 193/21/1 194/22/1 177/23/1 176/24/1
f 194/21/1 195/22/1 178/23/1 177/24/1
f 195/21/1 196/22/1 179/23/1 178/24/1
f 196/21/1 197/22/1 180/23/1 179/24/1
f 197/21/1 198/22/1 181/23/1 180/24/1
f 198/21/1 199/22/1 182/23/1 181/24/1
f 199/21/1 200/22/1 183/23/1 182/24/1
f 202/21/1 203/22/1 186/23/1 185/24/1
f 203/21/1 204/22/1 187/23/1 186/24/1

g mesh_0004
f 54/25/1 55/26/1 38/27/1 37/28/1
f 55/25/1 56/26/1 39/27/1 38/28/1
f 56/25/1 57/26/1 40/27/1 39/28/1
f 57/25/1 58/26/1 41/27/1 40/28/1
f 58/25/1 59/26/1 42/27/1 41/28/1
f 59/25/1 60/26/1 43/27/1 42/28/1
f 60/25/1 61/26/1 44/27/1 43/28/1
f 61/25/1 62/26/1 45/27/1 44/28/1
f 62/25/1 63/26/1 46/27/1 45/28/1
f 63/25/1 64/26/1 47/27/1 46/28/1
f 64/25/1 65/26/1 48/27/1 47/28/1
f 65/25/1 66/26/1 49/27/1 48/28/1
f 71/25/1 72/26/1 55/27/1 54/28/1
f 76/25/1 77/26/1 60/27/1 59/28/1
f 77/25/1 78/26/1 61/27/1 60/28/1
f 78/25/1 79/26/1 62/27/1 61/28/1
f 79/25/1 80/26/1 63/27/1 62/28/1
f 80/25/1 81/26/1 64/27/1 63/28/1
f 81/25/1 82/26/1 65/27/1 64/28/1
f 82/25/1 83/26/1 66/27/1 65/28/1
f 83/25/1 84/26/1 67/27/1 66/28/1
f 88/25/1 89/26/1 72/27/1 71/28/1
f 89/25/1 90/26/1 73/27/1 72/28/1
f 90/25/1 91/26/1 74/27/1 73/28/1
f 91/25/1 92/26/1 75/27/1 74/28/1
f 92/25/1 93/26/1 76/27/1 75/28/1
f 93/25/1 94/26/1 77/27/1 76/28/1
f 97/25/1 98/26/1 81/27/1 80/28/1
f 98/25/1 99/26/1 82/27/1 81/28/1
f 99/25/1 100/26/1 83/27/1 82/28/1
f 105/25/1 106/26/1 89/27/1 88/28/1
f 110/25/1 111/26/1 94/27/1 93/28/1
f 111/25/1 112/26/1 95/27/1 94/28/1
f 112/25/1 113/26/1 96/27/1 95/28/1
f 113/25/1 114/26/1 97/27/1 96/28/1
f 114/25/1 115/26/1 98/27/1 97/28/1
f 115/25/1 116/26/1 99/27/1 98/28/1
f 116/25/1 117/26/1 100/27/1 99/28/1
f 122/25/1 123/26/1 106/27/1 105/28/1
f 123/25/1 124/26/1 107/27/1 106/28/1
f 124/25/1 125/26/1 108/27/1 107/28/1
f 125/25/1 126/26/1 109/27/1 108/28/1
f 126/25/1 127/26/1 110/27/1 109/28/1
f 127/25/1 128/26/1 111/27/1 110/28/1
f 131/25/1 132/26/1 115/27/1 114/28/1
f 132/25/1 133/26/1 116/27/1 115/28/1
f 133/25/1 134/26/1 117/27/1 116/28/1
f 139/25/1 140/26/1 123/27/1 122/28/1
f 144/25/1 145/26/1 128/27/1 127/28/1
f 145/25/1 146/26/1 129/27/1 128/28/1
f 146/25/1 147/26/1 130/27/1 129/28/1
f 147/25/1 148/26/1 131/27/1 130/28/1
f 148/25/1 149/26/1 132/27/1 131/28/1
f 149/25/1 150/26/1 133/27/1 132/28/1
f 150/25/1 151/26/1 134/27/1 133/28/1
f 151/25/1 152/26/1 135/27/1 134/28/1
f 156/25/1 157/26/1 140/27/1 139/28/1
f 157/25/1 158/26/1 141/27/1 140/28/1
f 158/25/1 159/26/1 142/27/1 141/28/1
f 159/25/1 160/26/1 143/27/1 142/28/1
f 160/25/1 161/26/1 144/27/1 143/28/1
f 161/25/1 162/26/1 145/27/1 144/28/1
f 162/25/1 163/26/1 146/27/1 145/28/1
f 163/25/1 164/26/1 147/27/1 146/28/1
f 164/25/1 165/26/1 148/27/1 147/28/1
f 165/25/1 166/26/1 149/27/1 148/28/1
f 166/25/1 167/26/1 150/27/1 149/28/1
f 167/25/1 168/26/1 151/27/1 150/28/1

